<?xml version="1.0" encoding="UTF-8"?>
<svg version="1.1" xmlns="http://www.w3.org/2000/svg" width="512" height="512">
<path d="M0 0 C1.13717468 -0.00287018 2.27434937 -0.00574036 3.44598389 -0.00869751 C5.83964539 -0.01073234 8.23332375 -0.0052433 10.62695312 0.00732422 C14.29855178 0.02344486 17.96905951 0.00742444 21.640625 -0.01171875 C23.96875243 -0.00973738 26.29687919 -0.00589591 28.625 0 C29.72499329 -0.00607269 30.82498657 -0.01214539 31.95831299 -0.0184021 C32.97657166 -0.00894562 33.99483032 0.00051086 35.04394531 0.01025391 C35.93994446 0.01264069 36.8359436 0.01502747 37.75909424 0.01748657 C40.046875 0.3984375 40.046875 0.3984375 41.85955811 1.67269897 C43.046875 3.3984375 43.046875 3.3984375 43.046875 7.3984375 C51.296875 7.3984375 59.546875 7.3984375 68.046875 7.3984375 C68.376875 5.7484375 68.706875 4.0984375 69.046875 2.3984375 C71.46738971 -0.02207721 72.03157774 0.14658293 75.34117126 0.13837528 C76.24815262 0.13130969 77.15513397 0.1242441 78.08959961 0.1169644 C79.09249023 0.11937948 80.09538086 0.12179457 81.12866211 0.12428284 C82.18912247 0.11904616 83.24958282 0.11380948 84.34217834 0.10841411 C87.91956258 0.09333201 91.49680482 0.09270715 95.07421875 0.09204102 C97.62968693 0.08442479 100.1851528 0.07599824 102.74061584 0.06681824 C109.70169718 0.04480722 116.66272893 0.03604339 123.62384033 0.03099179 C127.97148086 0.02773683 132.31911253 0.02121534 136.66674805 0.0139904 C148.70567541 -0.00558399 160.74459451 -0.02198185 172.78353882 -0.02488613 C173.55449949 -0.0250737 174.32546016 -0.02526127 175.11978328 -0.02545452 C176.68272686 -0.02582078 178.24567044 -0.02618447 179.80861402 -0.02654564 C180.58446182 -0.02672845 181.36030962 -0.02691126 182.15966797 -0.02709961 C183.32486249 -0.02737043 183.32486249 -0.02737043 184.5135963 -0.02764673 C197.08741776 -0.0311848 209.66106757 -0.05818039 222.23482955 -0.0955975 C235.14647203 -0.13371201 248.05802945 -0.15304386 260.96972942 -0.15334564 C268.21809503 -0.15392971 275.4662562 -0.1623876 282.71456909 -0.19134331 C289.53704114 -0.21847211 296.35910273 -0.21973512 303.1816082 -0.20368767 C305.68333251 -0.20187199 308.18507999 -0.20857444 310.68675423 -0.22450638 C314.10805337 -0.24496271 317.52793703 -0.23441552 320.94921875 -0.21629333 C322.42678603 -0.23609329 322.42678603 -0.23609329 323.93420315 -0.25629324 C331.5982877 -0.16387388 338.19933218 1.89877928 343.96202087 7.14042097 C349.02467593 12.57108867 351.23535381 17.93258227 351.046875 25.3984375 C351.91376953 25.38272705 352.78066406 25.3670166 353.67382812 25.35083008 C356.92413074 25.29936551 360.17422398 25.26192489 363.42480469 25.23364258 C364.82526531 25.21865836 366.22567983 25.19826371 367.62597656 25.17211914 C384.8551397 24.85874991 384.8551397 24.85874991 391.859375 30.7734375 C396.71473615 36.59987088 398.16854098 40.89192279 398.18109608 48.38959408 C398.18555392 49.62411342 398.19001176 50.85863275 398.19460469 52.13056177 C398.1945154 53.50272621 398.19432556 54.87489064 398.19404602 56.24705505 C398.19734561 57.70299934 398.20107138 59.15894271 398.2051875 60.61488491 C398.21520424 64.6209514 398.21892374 68.62700289 398.22157681 72.63308012 C398.22548065 76.95148901 398.23505871 81.26988604 398.24378967 85.58828735 C398.26354839 96.01757864 398.27361802 106.44687089 398.28251746 116.87617621 C398.28689998 121.78528554 398.29226676 126.69439379 398.29750633 131.60350227 C398.31451548 147.91711802 398.32901148 164.23073309 398.33625507 180.54435635 C398.33816501 184.77737364 398.34008534 189.01039093 398.34204102 193.2434082 C398.34252476 194.29552166 398.3430085 195.34763512 398.3435069 196.4316308 C398.35181414 213.48996224 398.37716417 230.54822372 398.40962169 247.60652458 C398.44265869 265.11169887 398.46070065 282.61683755 398.46389931 300.12204319 C398.46606717 309.95403545 398.47485637 319.78592557 398.50036049 329.6178875 C398.52202135 337.98759893 398.53014061 346.35718342 398.52039371 354.7269197 C398.51583601 358.99895331 398.51782021 363.27072473 398.53715515 367.5427227 C398.55469474 371.45168505 398.55386476 375.36019216 398.53825786 379.26915873 C398.53586774 380.68500581 398.54027764 382.10088366 398.55208651 383.51668351 C398.56712392 385.43821312 398.55518772 387.35989756 398.54185963 389.28143978 C398.54283644 390.3497031 398.54381324 391.41796642 398.54481965 392.51860136 C397.91879279 396.13919408 396.64913842 397.84308442 394.046875 400.3984375 C393.056875 400.3984375 392.066875 400.3984375 391.046875 400.3984375 C391.07984771 403.33900364 391.14694419 406.27191713 391.234375 409.2109375 C391.24017578 410.04431641 391.24597656 410.87769531 391.25195312 411.73632812 C391.33598265 414.06114507 391.45855483 416.14635474 392.046875 418.3984375 C394.42421932 420.35092157 394.42421932 420.35092157 397.046875 421.3984375 C397.97980065 424.19721446 398.18285536 425.93786231 398.20800781 428.8347168 C398.21761536 429.72962326 398.2272229 430.62452972 398.23712158 431.54655457 C398.2434964 432.9949749 398.2434964 432.9949749 398.25 434.47265625 C398.25570007 435.47045609 398.26140015 436.46825592 398.26727295 437.49629211 C398.27672328 439.61039164 398.28325706 441.72450591 398.28710938 443.83862305 C398.29678525 447.05609271 398.32779638 450.27291545 398.359375 453.49023438 C398.3659083 455.54687122 398.37115749 457.60351262 398.375 459.66015625 C398.3873468 460.61564865 398.3996936 461.57114105 398.41241455 462.55558777 C398.38864811 469.76738522 397.47485958 475.5231926 392.671875 481.2109375 C386.46266613 486.38527823 382.08071922 487.52993684 374.09375 487.49609375 C373.43352844 487.4946788 372.77330688 487.49326385 372.09307861 487.49180603 C369.99429706 487.48622995 367.89562405 487.47368197 365.796875 487.4609375 C364.36979321 487.4559194 362.94270975 487.45135704 361.515625 487.44726562 C358.02600668 487.43626838 354.53645144 487.4190203 351.046875 487.3984375 C350.97666138 488.29900879 350.97666138 488.29900879 350.9050293 489.21777344 C350.20251458 496.87959882 347.98062251 501.99396587 342.171875 507.2109375 C334.21286386 512.7822453 327.76412626 512.83165522 318.21281433 512.79284668 C316.79496364 512.79773874 315.37711693 512.80393 313.95927697 512.81130457 C310.072197 512.82768752 306.18532006 512.82538954 302.29821765 512.8199296 C298.10244762 512.81725735 293.90673146 512.8317949 289.71098328 512.84402466 C281.4942393 512.86507296 273.27756589 512.86961984 265.06079813 512.86783677 C258.38102643 512.86652879 251.70127673 512.87033515 245.02150917 512.87776184 C243.09688022 512.87986106 241.17225127 512.88195866 239.24762231 512.88405466 C237.81067017 512.88561995 237.81067017 512.88561995 236.34468869 512.88721687 C218.22908553 512.90611699 200.11352287 512.9050698 181.99791393 512.89824754 C165.4313437 512.89267285 148.86492814 512.91349477 132.29839405 512.94660801 C115.28238409 512.98035529 98.26644822 512.995512 81.25040418 512.99089098 C71.69941767 512.98864726 62.1485741 512.9938751 52.5976162 513.01878357 C44.46596947 513.03981014 36.33454407 513.04337529 28.20288821 513.02448398 C24.05573178 513.01533428 19.90898785 513.01415928 15.76186371 513.03483963 C11.96120867 513.05358226 8.16130301 513.0490102 4.36067621 513.02629381 C2.34330108 513.02014558 0.32589652 513.03847384 -1.6913951 513.05783033 C-10.27999769 512.97430377 -17.39704688 511.64438598 -23.85584956 505.62523031 C-30.9341226 497.94963253 -32.1200055 490.08368182 -32.05078125 479.9375 C-32.0493663 479.14693207 -32.04795135 478.35636414 -32.04649353 477.5418396 C-32.04093004 475.03566584 -32.02838444 472.52958392 -32.015625 470.0234375 C-32.01060528 468.31640755 -32.0060432 466.60937618 -32.00195312 464.90234375 C-31.99097259 460.73434002 -31.97373339 456.56640429 -31.953125 452.3984375 C-32.94566284 452.42454102 -32.94566284 452.42454102 -33.95825195 452.45117188 C-41.71750629 452.57033768 -47.8730799 451.79591867 -54.03125 446.66796875 C-59.02784646 441.40894601 -61.67701692 435.99125968 -62.11328125 428.734375 C-61.85959071 421.52956379 -59.59097124 415.92205265 -54.953125 410.3984375 C-47.32561088 404.1381193 -42.41655414 404.3984375 -31.953125 404.3984375 C-31.953125 391.8584375 -31.953125 379.3184375 -31.953125 366.3984375 C-35.583125 366.3984375 -39.213125 366.3984375 -42.953125 366.3984375 C-50.98971437 363.86056717 -56.10133161 359.76767608 -60.0859375 352.265625 C-62.69522464 345.70714651 -62.73856517 338.67759162 -60.0078125 332.1328125 C-56.69386906 326.38279143 -52.13535103 321.98955052 -46.203125 319.0234375 C-41.53411003 318.12555001 -36.70769152 318.3984375 -31.953125 318.3984375 C-31.953125 305.8584375 -31.953125 293.3184375 -31.953125 280.3984375 C-35.583125 280.3984375 -39.213125 280.3984375 -42.953125 280.3984375 C-50.98971437 277.86056717 -56.10133161 273.76767608 -60.0859375 266.265625 C-62.69522464 259.70714651 -62.73856517 252.67759162 -60.0078125 246.1328125 C-56.69386906 240.38279143 -52.13535103 235.98955052 -46.203125 233.0234375 C-41.53411003 232.12555001 -36.70769152 232.3984375 -31.953125 232.3984375 C-31.953125 219.8584375 -31.953125 207.3184375 -31.953125 194.3984375 C-35.583125 194.3984375 -39.213125 194.3984375 -42.953125 194.3984375 C-50.81441763 192.43311434 -55.30642893 188.2802584 -59.828125 181.6484375 C-62.26528521 174.60775244 -62.87526255 167.54225621 -60.0859375 160.53125 C-56.10133161 153.02919892 -50.98971437 148.93630783 -42.953125 146.3984375 C-39.323125 146.3984375 -35.693125 146.3984375 -31.953125 146.3984375 C-31.953125 133.8584375 -31.953125 121.3184375 -31.953125 108.3984375 C-35.913125 108.3984375 -39.873125 108.3984375 -43.953125 108.3984375 C-51.2425148 105.62641603 -56.41214322 101.51364818 -60.16015625 94.4765625 C-62.64653761 87.96052859 -62.66381838 80.99150658 -60.08203125 74.53125 C-56.485197 67.73584688 -51.97296049 63.82804479 -44.87109375 60.9921875 C-40.57066094 60.1171329 -36.32608386 60.28342969 -31.953125 60.3984375 C-31.96359863 59.34978516 -31.97407227 58.30113281 -31.98486328 57.22070312 C-32.02128844 53.29951441 -32.04410678 49.37834042 -32.06298828 45.45703125 C-32.07299484 43.76559934 -32.08660431 42.07418451 -32.10400391 40.3828125 C-32.12848903 37.94006108 -32.13966172 35.49754001 -32.1484375 33.0546875 C-32.15876007 32.30852173 -32.16908264 31.56235596 -32.17971802 30.7935791 C-32.1816363 21.64873673 -29.89928201 13.67251652 -23.5390625 6.890625 C-16.23637809 0.36897635 -9.35625244 -0.05203575 0 0 Z " fill="#000101" transform="translate(87.953125,-0.3984375)"/>
<path d="M0 0 C1.41629062 -0.01064158 1.41629062 -0.01064158 2.86119318 -0.02149814 C6.02128099 -0.03908354 9.18013976 -0.02096999 12.34020996 -0.00291443 C14.60719869 -0.00805301 16.87418343 -0.01533383 19.14115906 -0.02459717 C25.29611921 -0.04312683 31.45064671 -0.0301623 37.60558891 -0.01050687 C44.04500719 0.00586777 50.48439781 -0.00293162 56.92382812 -0.00802612 C67.73799583 -0.01254839 78.55196358 0.00322666 89.36608887 0.03126526 C100.48823226 0.06010202 111.61012928 0.06718588 122.7322998 0.05177307 C136.14143543 0.03321644 149.5503726 0.03495309 162.95951843 0.0539875 C168.0790257 0.0608624 173.19844139 0.05982098 178.31794739 0.05244255 C184.34596187 0.04478491 190.37362119 0.05688938 196.40157509 0.08429146 C198.61470294 0.09118175 200.82786393 0.0912664 203.04099083 0.08407593 C206.06052063 0.07539547 209.07895086 0.09131428 212.09838867 0.11352539 C212.97562796 0.10528462 213.85286725 0.09704386 214.75668955 0.08855337 C221.0364788 0.17389752 224.66279606 1.7175932 229.1875515 6.28028113 C231.10760508 9.59106789 230.96481208 12.69102825 230.93230438 16.41254997 C230.9372639 17.20552666 230.94222341 17.99850334 230.94733322 18.81550962 C230.96035043 21.48914102 230.95188537 24.16227801 230.94360352 26.83592224 C230.94848953 28.7655085 230.95467798 30.69509183 230.96206141 32.62467015 C230.9785209 37.94002929 230.9761308 43.25524071 230.97068644 48.57061648 C230.96802362 54.29806783 230.98253394 60.02547913 230.99478149 65.75291443 C231.01586947 76.97866191 231.02037442 88.20435778 231.01859361 99.43012272 C231.01728766 108.55183692 231.02108154 117.67353497 231.02851868 126.79524612 C231.0306178 129.41947877 231.0327154 132.04371142 231.0348115 134.66794407 C231.03637679 136.62697762 231.03637679 136.62697762 231.0379737 138.6255876 C231.05151339 156.31862927 231.05909734 174.01166337 231.05464935 191.70471001 C231.0544774 192.39687323 231.05430544 193.08903646 231.05412828 193.80217433 C231.05323936 197.31046832 231.05229455 200.8187623 231.05133027 204.32705627 C231.05113924 205.02383549 231.0509482 205.72061471 231.05075138 206.43850846 C231.05036429 207.84756607 231.04997396 209.25662368 231.0495804 210.6656813 C231.04361004 232.59186633 231.05904857 254.51794582 231.09118652 276.44410706 C231.12724944 301.06905832 231.14655429 325.69393631 231.14164782 350.31891644 C231.13940014 363.36077875 231.14468978 376.40253644 231.16954041 389.4443779 C231.1905156 400.54720237 231.19418313 411.64986487 231.17524081 422.7526959 C231.16605964 428.42027126 231.16501281 434.08754432 231.18559647 439.75509644 C231.20422053 444.94032686 231.19989946 450.12500556 231.17705065 455.31021442 C231.17284316 457.18905938 231.1771365 459.06794595 231.19064659 460.94674705 C231.20773292 463.49588565 231.19416979 466.04308177 231.17281342 468.59214592 C231.18509094 469.32607411 231.19736847 470.06000231 231.21001804 470.81617075 C231.11006243 476.50535638 229.49295929 478.81284122 225.54919434 482.62818909 C222.80157671 484.44207349 220.73553106 484.8796027 217.47173691 484.89383793 C216.66404193 484.90213692 215.85634695 484.91043591 215.02417636 484.91898638 C214.14247563 484.91793554 213.26077489 484.91688469 212.35235596 484.915802 C210.9407453 484.92577372 210.9407453 484.92577372 209.50061727 484.93594688 C206.33937186 484.95567074 203.17826792 484.96102253 200.01696777 484.96632385 C197.753521 484.97721664 195.49007785 484.98888809 193.22663879 485.00128174 C187.07158375 485.03181616 180.91656614 485.048812 174.76145077 485.06149793 C170.91667802 485.0695783 167.07191609 485.07975868 163.22714996 485.09051323 C152.5778353 485.11948946 141.92853489 485.14450688 131.27918625 485.15513706 C130.59782103 485.15582776 129.91645581 485.15651845 129.21444316 485.15723008 C128.1899778 485.1582681 128.1899778 485.1582681 127.14481616 485.15932709 C125.76089143 485.16073907 124.37696671 485.16215988 122.99304199 485.16358948 C121.96333471 485.16464723 121.96333471 485.16464723 120.91282526 485.16572636 C109.79266443 485.17797351 98.67284472 485.22076279 87.55282542 485.27652968 C76.13046336 485.33334681 64.70835286 485.36319928 53.2858336 485.36814922 C46.87468428 485.37154972 40.46404845 485.38644578 34.05303192 485.42943001 C28.02163301 485.46916038 21.9911065 485.47559458 15.95961571 485.45652962 C13.7472919 485.45526269 11.53492368 485.46595261 9.3227253 485.48954391 C6.29876337 485.51994865 3.27792156 485.50702556 0.25396729 485.48342896 C-1.05519948 485.51196743 -1.05519948 485.51196743 -2.39081407 485.54108244 C-8.45046231 485.4287167 -11.46064973 483.62951714 -15.79060054 479.42920727 C-29.33156022 464.73974862 -33.72507636 447.52513644 -33.75939941 427.95631409 C-33.778118 425.99877981 -33.79685345 424.04124552 -33.81658268 422.08372116 C-33.86166101 417.30225259 -33.8856578 412.52065309 -33.90710449 407.73902893 C-33.91993351 405.03909202 -33.94063556 402.33941663 -33.96937561 399.63960266 C-33.99554382 397.10881837 -34.00951171 394.57787085 -34.00975037 392.04695129 C-34.07860179 386.11871093 -34.17619614 381.77316502 -37.45080566 376.62818909 C-37.84924316 373.84693909 -37.84924316 373.84693909 -37.82580566 371.12818909 C-37.83354004 370.23100159 -37.84127441 369.33381409 -37.84924316 368.40943909 C-37.45080566 365.62818909 -37.45080566 365.62818909 -35.95292664 363.03050232 C-34.02973642 358.67446467 -34.0104704 355.11509762 -34.01843262 350.40992737 C-34.00314514 349.04799004 -34.00314514 349.04799004 -33.98754883 347.65853882 C-33.95747053 344.67179655 -33.9481607 341.68537528 -33.93908691 338.69850159 C-33.92223642 336.62198322 -33.90408568 334.54547503 -33.88468933 332.46897888 C-33.83722361 327.01432983 -33.80739195 321.55972206 -33.78125 316.10493469 C-33.75142729 310.53447826 -33.70490279 304.96416396 -33.65979004 299.39381409 C-33.57379584 288.47201349 -33.50643317 277.55018361 -33.45080566 266.62818909 C-32.79080566 266.95818909 -32.13080566 267.28818909 -31.45080566 267.62818909 C-28.60848436 267.73067197 -25.79040871 267.77155977 -22.94763184 267.76863098 C-21.61186364 267.77308766 -21.61186364 267.77308766 -20.24911022 267.77763438 C-17.24732226 267.78634748 -14.24557405 267.78783181 -11.24377441 267.7893219 C-9.09896763 267.79394813 -6.95416168 267.79897252 -4.80935669 267.80436707 C1.02931562 267.81750955 6.86797643 267.82393931 12.70666122 267.82837772 C16.3500255 267.83130471 19.99338659 267.83540874 23.63674927 267.8398819 C35.02346501 267.85356002 46.41017354 267.86322585 57.79689693 267.86708379 C70.96514022 267.87156925 84.13327995 267.88913849 97.30149174 267.91808438 C107.46538795 267.93965521 117.62925492 267.94978556 127.79317379 267.95112491 C133.87087414 267.952176 139.9484772 267.95814833 146.02615356 267.97594452 C151.73883813 267.99234645 157.45135143 267.99461929 163.16405106 267.98580551 C165.26599204 267.98503096 167.36794194 267.98943234 169.46986008 267.99926376 C172.32878821 268.01185666 175.18709796 268.00617613 178.04602051 267.99568176 C178.88705731 268.00373817 179.72809412 268.01179457 180.59461689 268.02009511 C183.13180646 268.03392008 183.13180646 268.03392008 186.54919434 267.62818909 C188.86281236 264.15776205 189.05940162 262.70984735 188.54919434 258.62818909 C186.05931058 255.84228661 184.48011376 255.62141806 180.72605896 255.25345898 C179.14105401 255.23824825 177.55583876 255.2396833 175.9708252 255.25396729 C175.09634955 255.24999288 174.22187391 255.24601847 173.32089901 255.24192363 C170.38511426 255.23228459 167.44980947 255.24412851 164.51403809 255.25587463 C162.41158874 255.2534472 160.30914055 255.24972836 158.20669556 255.24481201 C152.49190863 255.23539277 146.77729267 255.24483721 141.06251907 255.25814414 C135.08794371 255.26944509 129.11337693 255.26535218 123.13879395 255.26339722 C113.10466716 255.26251381 103.07060788 255.27360436 93.03649902 255.29200745 C81.42805844 255.31317575 69.81971677 255.31668521 58.2112608 255.31044549 C47.05412678 255.30475491 35.89702767 255.31039389 24.73989868 255.32161903 C19.98718624 255.32626907 15.23449511 255.32713712 10.48178101 255.32503319 C4.88726616 255.32315242 -0.70714773 255.33123798 -6.30163956 255.34709358 C-8.35758166 255.35134364 -10.41353399 255.35218216 -12.46947861 255.34940338 C-15.27057616 255.34619128 -18.07137019 255.35523892 -20.87243652 255.36749268 C-21.69071961 255.36371335 -22.5090027 255.35993403 -23.35208225 255.35604018 C-27.51477986 255.3883697 -29.63187562 255.71872407 -33.45080566 257.62818909 C-33.45080566 247.06818909 -33.45080566 236.50818909 -33.45080566 225.62818909 C-32.79080566 225.95818909 -32.13080566 226.28818909 -31.45080566 226.62818909 C-28.60848436 226.73067197 -25.79040871 226.77155977 -22.94763184 226.76863098 C-21.61186364 226.77308766 -21.61186364 226.77308766 -20.24911022 226.77763438 C-17.24732226 226.78634748 -14.24557405 226.78783181 -11.24377441 226.7893219 C-9.09896763 226.79394813 -6.95416168 226.79897252 -4.80935669 226.80436707 C1.02931562 226.81750955 6.86797643 226.82393931 12.70666122 226.82837772 C16.3500255 226.83130471 19.99338659 226.83540874 23.63674927 226.8398819 C35.02346501 226.85356002 46.41017354 226.86322585 57.79689693 226.86708379 C70.96514022 226.87156925 84.13327995 226.88913849 97.30149174 226.91808438 C107.46538795 226.93965521 117.62925492 226.94978556 127.79317379 226.95112491 C133.87087414 226.952176 139.9484772 226.95814833 146.02615356 226.97594452 C151.73883813 226.99234645 157.45135143 226.99461929 163.16405106 226.98580551 C165.26599204 226.98503096 167.36794194 226.98943234 169.46986008 226.99926376 C172.32878821 227.01185666 175.18709796 227.00617613 178.04602051 226.99568176 C178.88705731 227.00373817 179.72809412 227.01179457 180.59461689 227.02009511 C183.13180646 227.03392008 183.13180646 227.03392008 186.54919434 226.62818909 C188.86281236 223.15776205 189.05940162 221.70984735 188.54919434 217.62818909 C186.05931058 214.84228661 184.48011376 214.62141806 180.72605896 214.25345898 C179.14105401 214.23824825 177.55583876 214.2396833 175.9708252 214.25396729 C175.09634955 214.24999288 174.22187391 214.24601847 173.32089901 214.24192363 C170.38511426 214.23228459 167.44980947 214.24412851 164.51403809 214.25587463 C162.41158874 214.2534472 160.30914055 214.24972836 158.20669556 214.24481201 C152.49190863 214.23539277 146.77729267 214.24483721 141.06251907 214.25814414 C135.08794371 214.26944509 129.11337693 214.26535218 123.13879395 214.26339722 C113.10466716 214.26251381 103.07060788 214.27360436 93.03649902 214.29200745 C81.42805844 214.31317575 69.81971677 214.31668521 58.2112608 214.31044549 C47.05412678 214.30475491 35.89702767 214.31039389 24.73989868 214.32161903 C19.98718624 214.32626907 15.23449511 214.32713712 10.48178101 214.32503319 C4.88726616 214.32315242 -0.70714773 214.33123798 -6.30163956 214.34709358 C-8.35758166 214.35134364 -10.41353399 214.35218216 -12.46947861 214.34940338 C-15.27057616 214.34619128 -18.07137019 214.35523892 -20.87243652 214.36749268 C-21.69071961 214.36371335 -22.5090027 214.35993403 -23.35208225 214.35604018 C-27.51477986 214.3883697 -29.63187562 214.71872407 -33.45080566 216.62818909 C-33.45080566 206.06818909 -33.45080566 195.50818909 -33.45080566 184.62818909 C-32.79080566 184.95818909 -32.13080566 185.28818909 -31.45080566 185.62818909 C-28.60848436 185.73067197 -25.79040871 185.77155977 -22.94763184 185.76863098 C-21.61186364 185.77308766 -21.61186364 185.77308766 -20.24911022 185.77763438 C-17.24732226 185.78634748 -14.24557405 185.78783181 -11.24377441 185.7893219 C-9.09896763 185.79394813 -6.95416168 185.79897252 -4.80935669 185.80436707 C1.02931562 185.81750955 6.86797643 185.82393931 12.70666122 185.82837772 C16.3500255 185.83130471 19.99338659 185.83540874 23.63674927 185.8398819 C35.02346501 185.85356002 46.41017354 185.86322585 57.79689693 185.86708379 C70.96514022 185.87156925 84.13327995 185.88913849 97.30149174 185.91808438 C107.46538795 185.93965521 117.62925492 185.94978556 127.79317379 185.95112491 C133.87087414 185.952176 139.9484772 185.95814833 146.02615356 185.97594452 C151.73883813 185.99234645 157.45135143 185.99461929 163.16405106 185.98580551 C165.26599204 185.98503096 167.36794194 185.98943234 169.46986008 185.99926376 C172.32878821 186.01185666 175.18709796 186.00617613 178.04602051 185.99568176 C178.88705731 186.00373817 179.72809412 186.01179457 180.59461689 186.02009511 C183.13180646 186.03392008 183.13180646 186.03392008 186.54919434 185.62818909 C188.86281236 182.15776205 189.05940162 180.70984735 188.54919434 176.62818909 C186.05931058 173.84228661 184.48011376 173.62141806 180.72605896 173.25345898 C179.14105401 173.23824825 177.55583876 173.2396833 175.9708252 173.25396729 C175.09634955 173.24999288 174.22187391 173.24601847 173.32089901 173.24192363 C170.38511426 173.23228459 167.44980947 173.24412851 164.51403809 173.25587463 C162.41158874 173.2534472 160.30914055 173.24972836 158.20669556 173.24481201 C152.49190863 173.23539277 146.77729267 173.24483721 141.06251907 173.25814414 C135.08794371 173.26944509 129.11337693 173.26535218 123.13879395 173.26339722 C113.10466716 173.26251381 103.07060788 173.27360436 93.03649902 173.29200745 C81.42805844 173.31317575 69.81971677 173.31668521 58.2112608 173.31044549 C47.05412678 173.30475491 35.89702767 173.31039389 24.73989868 173.32161903 C19.98718624 173.32626907 15.23449511 173.32713712 10.48178101 173.32503319 C4.88726616 173.32315242 -0.70714773 173.33123798 -6.30163956 173.34709358 C-8.35758166 173.35134364 -10.41353399 173.35218216 -12.46947861 173.34940338 C-15.27057616 173.34619128 -18.07137019 173.35523892 -20.87243652 173.36749268 C-21.69071961 173.36371335 -22.5090027 173.35993403 -23.35208225 173.35604018 C-27.51477986 173.3883697 -29.63187562 173.71872407 -33.45080566 175.62818909 C-33.45080566 158.79818909 -33.45080566 141.96818909 -33.45080566 124.62818909 C-31.14080566 126.60818909 -28.83080566 128.58818909 -26.45080566 130.62818909 C-22.3377893 131.65644318 -18.62794714 131.7763768 -14.43084717 131.77536011 C-13.2091217 131.78087514 -13.2091217 131.78087514 -11.96271491 131.78650159 C-9.22989764 131.79752628 -6.4971184 131.80138019 -3.76428223 131.80519104 C-1.80625284 131.81145655 0.15177535 131.81810343 2.10980225 131.82510376 C8.5427162 131.84613417 14.97563037 131.85650445 21.40856934 131.86647034 C23.62357852 131.87051812 25.83858757 131.87463505 28.0535965 131.87882042 C38.45894127 131.89786898 48.86427896 131.91210134 59.26963782 131.92043239 C71.27982853 131.93020726 83.28983505 131.95653482 95.29996085 131.99693328 C104.58416772 132.02709082 113.86832178 132.04190089 123.15257668 132.0452134 C128.69727771 132.04756408 134.24178189 132.0565272 139.78643036 132.08167458 C145.00345548 132.10495416 150.22015412 132.10918888 155.43721771 132.09891319 C157.3495899 132.09841772 159.26197816 132.10474164 161.17430115 132.11846924 C163.79035766 132.13619456 166.40524325 132.12907919 169.02130127 132.11593628 C169.77345972 132.12690553 170.52561817 132.13787477 171.3005693 132.14917642 C176.78833478 132.08286572 180.92882319 130.59983289 185.54919434 127.62818909 C189.85669379 123.18423129 188.99874197 117.01464247 188.98278809 111.19459534 C188.98802994 110.08390182 188.99327179 108.97320831 188.99867249 107.82885742 C189.00508808 105.48292374 189.00376172 103.13695786 188.99523926 100.79103088 C188.98673274 97.20686902 189.01549387 93.62430282 189.04724121 90.04029846 C189.04885345 87.7583979 189.04827526 85.47649452 189.04528809 83.19459534 C189.06213905 81.5912307 189.06213905 81.5912307 189.07933044 79.95547485 C189.02404287 74.03555008 188.75605811 70.16367986 184.54919434 65.62818909 C179.82941846 61.80473105 176.11192795 61.0512367 170.19934082 61.12025452 C168.96068472 61.11089457 168.96068472 61.11089457 167.69700527 61.10134554 C164.93780665 61.08542674 162.17949282 61.09801526 159.42028809 61.11061096 C157.43901047 61.10518935 155.45773689 61.09806647 153.47647095 61.08937073 C148.10046118 61.07113922 142.72475856 61.0782043 137.34874344 61.09088707 C131.72211124 61.10101556 126.0955053 61.0916218 120.46887207 61.08534241 C111.0200122 61.07806558 101.5712774 61.08765469 92.12243652 61.10670471 C81.19897279 61.12847345 70.27580769 61.12142211 59.35235119 61.09939909 C49.97299487 61.08124616 40.59372845 61.07868627 31.21436024 61.08915377 C25.61277687 61.09538925 20.01133387 61.09622271 14.40975952 61.08300781 C9.14342141 61.07145158 3.87746826 61.07947116 -1.38882828 61.10258484 C-3.32137538 61.10787311 -5.2539549 61.10635615 -7.18648911 61.09753418 C-9.82508055 61.08659976 -12.46243921 61.10031651 -15.10095215 61.12025452 C-16.24755483 61.10687019 -16.24755483 61.10687019 -17.41732121 61.09321547 C-22.58119997 61.16887914 -25.4311574 62.44863062 -29.45080566 65.62818909 C-30.23455566 66.20568909 -31.01830566 66.78318909 -31.82580566 67.37818909 C-32.36205566 67.79068909 -32.89830566 68.20318909 -33.45080566 68.62818909 C-34.14413575 44.15630382 -32.89477482 24.41893527 -15.45080566 5.62818909 C-10.43695265 0.49270948 -7.04493753 -0.09505042 0 0 Z " fill="#54D37A" transform="translate(194.4508056640625,13.371810913085938)"/>
<path d="M0 0 C4.08279501 -0.17421117 8.16463681 -0.28082588 12.25 -0.375 C13.40886719 -0.42527344 14.56773437 -0.47554688 15.76171875 -0.52734375 C18.94598776 -0.58256229 21.8679323 -0.58689843 25 0 C26.34300282 1.99351981 27.67622829 3.9936585 29 6 C33.22753043 6.94635636 37.43217961 6.88460583 41.75 6.875 C42.92433594 6.895625 44.09867187 6.91625 45.30859375 6.9375 C48.20643612 6.98461939 51.1018526 7.00443918 54 7 C53.25492187 7.73347656 52.50984375 8.46695312 51.7421875 9.22265625 C39.36286369 21.76068934 31.00608347 36.97933302 30.70703125 54.859375 C30.72660847 57.15643561 30.76184003 59.45341464 30.8125 61.75 C30.82603516 62.9359375 30.83957031 64.121875 30.85351562 65.34375 C30.88842591 68.22966693 30.93745461 71.11457264 31 74 C31.48210937 73.57847656 31.96421875 73.15695313 32.4609375 72.72265625 C33.40839844 71.90087891 33.40839844 71.90087891 34.375 71.0625 C35.00148438 70.51722656 35.62796875 69.97195312 36.2734375 69.41015625 C39.91099025 66.43921385 43.37429804 66.85176124 47.86883545 66.85282898 C49.102365 66.84731395 49.102365 66.84731395 50.36081433 66.8416875 C53.13215067 66.83062417 55.90344954 66.82680234 58.67480469 66.82299805 C60.65548828 66.8167354 62.63617069 66.81008878 64.61685181 66.80308533 C70.00952215 66.78565717 75.40218361 66.77511863 80.79487514 66.7668798 C84.16221459 66.76173351 87.52955125 66.75565762 90.89688873 66.74936867 C101.42717728 66.73031157 111.95745878 66.71608151 122.48776126 66.7077567 C134.65307238 66.69798123 146.8182017 66.6716557 158.98344874 66.63125581 C168.37968501 66.60111984 177.77586909 66.58629022 187.17215276 66.58297569 C192.78724171 66.58062233 198.40213655 66.57162474 204.01717377 66.54651451 C209.29982708 66.52327291 214.58215795 66.51898486 219.86484909 66.52927589 C221.80386043 66.52977232 223.74288743 66.52342064 225.68185043 66.50971985 C228.329365 66.4920591 230.97571509 66.49907818 233.62322998 66.51225281 C234.39036025 66.50128356 235.15749052 66.49031432 235.94786716 66.47901267 C241.11516098 66.54108231 244.01320086 67.75459638 248 71 C251.5937441 75.0793852 253.11407451 77.40300317 253.19287109 82.79760742 C253.21696548 84.29507759 253.21696548 84.29507759 253.24154663 85.82279968 C253.28601859 90.40049588 253.32707926 94.97804634 253.35009766 99.5559082 C253.36663851 101.96811585 253.39390344 104.38027486 253.43212891 106.79223633 C253.48699447 110.27190561 253.50878957 113.75042468 253.5234375 117.23046875 C253.54610687 118.30362839 253.56877625 119.37678802 253.59213257 120.48246765 C253.57634563 126.09963269 253.15189922 130.02514168 249.75894165 134.58955383 C244.55062408 138.76595818 239.09424541 139.43855405 232.61254883 139.38095093 C231.79479634 139.3856309 230.97704386 139.39031087 230.13451099 139.39513266 C227.40851689 139.40704924 224.68302862 139.39763858 221.95703125 139.38818359 C219.9969351 139.39225078 218.03684124 139.39759348 216.07675171 139.40411377 C210.76275879 139.41777566 205.44894085 139.41249332 200.13494492 139.40297651 C194.57018314 139.39537412 189.0054362 139.40242714 183.44067383 139.40713501 C174.09616408 139.41259086 164.7517255 139.40540539 155.40722656 139.39111328 C144.60820595 139.37478713 133.80935527 139.38007576 123.01033878 139.3965925 C113.73371712 139.41021218 104.45714658 139.41212465 95.18051815 139.40427649 C89.64209648 139.39960265 84.10375465 139.39896724 78.56533813 139.40888596 C73.35814088 139.41756031 68.15116245 139.41152498 62.9439888 139.39420319 C61.03443388 139.39024088 59.1248605 139.39136801 57.21531296 139.39799118 C54.60577819 139.40620684 51.99694163 139.39588496 49.38745117 139.38095093 C48.25791378 139.39098918 48.25791378 139.39098918 47.10555744 139.40123022 C41.92893971 139.34389203 38.4786237 138.44396559 34 136 C32.515 134.02 32.515 134.02 31 132 C31 148.17 31 164.34 31 181 C31.99 180.34 32.98 179.68 34 179 C36.84936932 178.80173227 39.60133026 178.72181632 42.4513855 178.73257446 C43.76075897 178.72577779 43.76075897 178.72577779 45.09658444 178.71884382 C48.03303008 178.70614397 50.96929158 178.70782378 53.90576172 178.70947266 C56.00644165 178.70349089 58.10711938 178.69668617 60.20779419 178.68911743 C65.92265774 178.67141446 71.63746144 178.66676025 77.35234976 178.66548586 C82.11889505 178.66358934 86.88542631 178.65623465 91.65196621 178.64914167 C102.89542608 178.6328438 114.1388539 178.627974 125.38232422 178.62939453 C136.99020578 178.63059636 148.59790152 178.60948944 160.20573604 178.5779072 C170.16333833 178.55177781 180.1208798 178.54102583 190.07851613 178.54230535 C196.0294498 178.54281596 201.98021841 178.53707803 207.93111801 178.51594925 C213.52732703 178.49662308 219.12321258 178.49640393 224.71943283 178.51098251 C226.77496308 178.5130787 228.83051328 178.50832181 230.88600922 178.4962616 C233.68927186 178.48087761 236.49140965 178.49007184 239.29464722 178.50552368 C240.11069959 178.49523656 240.92675195 178.48494943 241.76753318 178.47435057 C245.5226462 178.52018418 247.7808915 178.86593832 251.01283455 180.84340477 C253 183 253 183 253.5 186 C252.92665671 189.44005972 252.56479618 190.64613474 250 193 C247.00187592 193.39354286 244.36985857 193.52697904 241.36984253 193.48774719 C240.47777041 193.49187046 239.58569828 193.49599372 238.66659367 193.50024194 C235.66527869 193.50920101 232.66482939 193.4894795 229.66357422 193.4699707 C227.51699721 193.47047925 225.37042001 193.47273333 223.22384644 193.47660828 C217.38517597 193.4820405 211.54682125 193.46258242 205.70820761 193.43850732 C199.60944677 193.4172639 193.51068771 193.41780831 187.41189575 193.41581726 C177.17086324 193.40936393 166.92994992 193.38809321 156.68896484 193.35668945 C143.52520415 193.31637742 130.36152115 193.29900053 117.19770622 193.28938007 C105.90257326 193.2810913 94.6074569 193.26384945 83.31233835 193.24434257 C79.67047474 193.23826588 76.0286105 193.23312792 72.38674545 193.2279911 C66.67572339 193.21923351 60.96474022 193.20494941 55.25374222 193.1862812 C53.15138933 193.18013901 51.04903071 193.17569985 48.94667053 193.17303848 C46.08980623 193.16908114 43.23303118 193.15898686 40.37619019 193.14717102 C39.53292266 193.14735538 38.68965513 193.14753975 37.82083404 193.14772969 C32.11423606 193.11423606 32.11423606 193.11423606 31 192 C31 201.9 31 211.8 31 222 C31.99 221.34 32.98 220.68 34 220 C36.84936932 219.80173227 39.60133026 219.72181632 42.4513855 219.73257446 C43.76075897 219.72577779 43.76075897 219.72577779 45.09658444 219.71884382 C48.03303008 219.70614397 50.96929158 219.70782378 53.90576172 219.70947266 C56.00644165 219.70349089 58.10711938 219.69668617 60.20779419 219.68911743 C65.92265774 219.67141446 71.63746144 219.66676025 77.35234976 219.66548586 C82.11889505 219.66358934 86.88542631 219.65623465 91.65196621 219.64914167 C102.89542608 219.6328438 114.1388539 219.627974 125.38232422 219.62939453 C136.99020578 219.63059636 148.59790152 219.60948944 160.20573604 219.5779072 C170.16333833 219.55177781 180.1208798 219.54102583 190.07851613 219.54230535 C196.0294498 219.54281596 201.98021841 219.53707803 207.93111801 219.51594925 C213.52732703 219.49662308 219.12321258 219.49640393 224.71943283 219.51098251 C226.77496308 219.5130787 228.83051328 219.50832181 230.88600922 219.4962616 C233.68927186 219.48087761 236.49140965 219.49007184 239.29464722 219.50552368 C240.11069959 219.49523656 240.92675195 219.48494943 241.76753318 219.47435057 C245.5226462 219.52018418 247.7808915 219.86593832 251.01283455 221.84340477 C253 224 253 224 253.5 227 C252.92665671 230.44005972 252.56479618 231.64613474 250 234 C247.00187592 234.39354286 244.36985857 234.52697904 241.36984253 234.48774719 C240.47777041 234.49187046 239.58569828 234.49599372 238.66659367 234.50024194 C235.66527869 234.50920101 232.66482939 234.4894795 229.66357422 234.4699707 C227.51699721 234.47047925 225.37042001 234.47273333 223.22384644 234.47660828 C217.38517597 234.4820405 211.54682125 234.46258242 205.70820761 234.43850732 C199.60944677 234.4172639 193.51068771 234.41780831 187.41189575 234.41581726 C177.17086324 234.40936393 166.92994992 234.38809321 156.68896484 234.35668945 C143.52520415 234.31637742 130.36152115 234.29900053 117.19770622 234.28938007 C105.90257326 234.2810913 94.6074569 234.26384945 83.31233835 234.24434257 C79.67047474 234.23826588 76.0286105 234.23312792 72.38674545 234.2279911 C66.67572339 234.21923351 60.96474022 234.20494941 55.25374222 234.1862812 C53.15138933 234.18013901 51.04903071 234.17569985 48.94667053 234.17303848 C46.08980623 234.16908114 43.23303118 234.15898686 40.37619019 234.14717102 C39.53292266 234.14735538 38.68965513 234.14753975 37.82083404 234.14772969 C32.11423606 234.11423606 32.11423606 234.11423606 31 233 C31 242.9 31 252.8 31 263 C31.99 262.34 32.98 261.68 34 261 C36.84936932 260.80173227 39.60133026 260.72181632 42.4513855 260.73257446 C43.76075897 260.72577779 43.76075897 260.72577779 45.09658444 260.71884382 C48.03303008 260.70614397 50.96929158 260.70782378 53.90576172 260.70947266 C56.00644165 260.70349089 58.10711938 260.69668617 60.20779419 260.68911743 C65.92265774 260.67141446 71.63746144 260.66676025 77.35234976 260.66548586 C82.11889505 260.66358934 86.88542631 260.65623465 91.65196621 260.64914167 C102.89542608 260.6328438 114.1388539 260.627974 125.38232422 260.62939453 C136.99020578 260.63059636 148.59790152 260.60948944 160.20573604 260.5779072 C170.16333833 260.55177781 180.1208798 260.54102583 190.07851613 260.54230535 C196.0294498 260.54281596 201.98021841 260.53707803 207.93111801 260.51594925 C213.52732703 260.49662308 219.12321258 260.49640393 224.71943283 260.51098251 C226.77496308 260.5130787 228.83051328 260.50832181 230.88600922 260.4962616 C233.68927186 260.48087761 236.49140965 260.49007184 239.29464722 260.50552368 C240.11069959 260.49523656 240.92675195 260.48494943 241.76753318 260.47435057 C245.5226462 260.52018418 247.7808915 260.86593832 251.01283455 262.84340477 C253 265 253 265 253.5 268 C252.92665671 271.44005972 252.56479618 272.64613474 250 275 C247.00187592 275.39354286 244.36985857 275.52697904 241.36984253 275.48774719 C240.03173434 275.49393209 240.03173434 275.49393209 238.66659367 275.50024194 C235.66527869 275.50920101 232.66482939 275.4894795 229.66357422 275.4699707 C227.51699721 275.47047925 225.37042001 275.47273333 223.22384644 275.47660828 C217.38517597 275.4820405 211.54682125 275.46258242 205.70820761 275.43850732 C199.60944677 275.4172639 193.51068771 275.41780831 187.41189575 275.41581726 C177.17086324 275.40936393 166.92994992 275.38809321 156.68896484 275.35668945 C143.52520415 275.31637742 130.36152115 275.29900053 117.19770622 275.28938007 C105.90257326 275.2810913 94.6074569 275.26384945 83.31233835 275.24434257 C79.67047474 275.23826588 76.0286105 275.23312792 72.38674545 275.2279911 C66.67572339 275.21923351 60.96474022 275.20494941 55.25374222 275.1862812 C53.15138933 275.18013901 51.04903071 275.17569985 48.94667053 275.17303848 C46.08980623 275.16908114 43.23303118 275.15898686 40.37619019 275.14717102 C39.53292266 275.14735538 38.68965513 275.14753975 37.82083404 275.14772969 C32.11423606 275.11423606 32.11423606 275.11423606 31 274 C30.99120064 275.70888901 30.99120064 275.70888901 30.98222351 277.45230103 C30.92498876 288.19335631 30.852223 298.93420928 30.76428509 309.67505836 C30.71957444 315.19693159 30.68031967 320.71873092 30.65356445 326.24072266 C30.62753866 331.5706325 30.58714097 336.90025807 30.53681374 342.22999191 C30.5201402 344.2624902 30.50862896 346.29503767 30.50238609 348.32759476 C30.49275046 351.17654408 30.46469716 354.02476532 30.43237305 356.87353516 C30.43452568 358.13157959 30.43452568 358.13157959 30.4367218 359.41503906 C30.35688209 364.39684439 29.53706199 367.59039939 27 372 C26.53326547 374.76155556 26.53326547 374.76155556 26.625 377.5 C26.61726563 378.3971875 26.60953125 379.294375 26.6015625 380.21875 C26.81526937 383.06694865 26.81526937 383.06694865 28.50170898 385.36572266 C30.75425101 390.82952266 30.4008965 396.07689489 30.37109375 401.9296875 C30.38849249 404.52604287 30.40607667 407.12239701 30.42382812 409.71875 C30.43682795 413.78418175 30.4375158 417.84959113 30.43579102 421.91503906 C30.46006617 448.42350907 32.54333335 469.4275147 52.13427734 489.1484375 C52.74996582 489.75945312 53.3656543 490.37046875 54 491 C40.30034268 491.13907748 26.60085356 491.24566123 12.90063381 491.31087303 C6.53888942 491.34217308 0.17762834 491.38462368 -6.18383789 491.45263672 C-12.32412904 491.51787356 -18.46395559 491.55371602 -24.60456657 491.56926346 C-26.94615937 491.58034179 -29.28772701 491.60197553 -31.62912178 491.63438034 C-34.91158937 491.67799897 -38.1921423 491.68393153 -41.47485352 491.68115234 C-42.44086487 491.702724 -43.40687622 491.72429565 -44.40216064 491.746521 C-50.27964346 491.69274822 -53.44984768 490.65796599 -57.74111843 486.58152199 C-60.81546726 482.71924424 -60.12717562 478.05994505 -60.09765625 473.39453125 C-60.0962413 472.55532639 -60.09482635 471.71612152 -60.09336853 470.85148621 C-60.08777215 468.17178784 -60.07522035 465.4921731 -60.0625 462.8125 C-60.05748453 460.99544392 -60.05292171 459.17838652 -60.04882812 457.36132812 C-60.03780391 452.90751987 -60.02054178 448.45377411 -60 444 C-58.69180298 443.97812622 -58.69180298 443.97812622 -57.35717773 443.95581055 C-54.09340004 443.89442628 -50.83042043 443.82021612 -47.56713867 443.73754883 C-46.1600222 443.70448006 -44.75277884 443.67639296 -43.34545898 443.65356445 C-41.31179176 443.61968201 -39.27926865 443.56735782 -37.24609375 443.51171875 C-36.02591553 443.48553467 -34.8057373 443.45935059 -33.54858398 443.43237305 C-27.1353121 442.65095547 -21.30058201 439.95744324 -17 435 C-12.9278765 428.74683202 -11.94718391 422.33715131 -13 415 C-15.17580593 407.53273705 -20.26360659 403.17086545 -26.796875 399.375 C-32.78310358 396.90811696 -39.57243684 397.42176085 -45.9375 397.3125 C-50.578125 397.209375 -55.21875 397.10625 -60 397 C-60 384.13 -60 371.26 -60 358 C-44.5625 357.875 -44.5625 357.875 -39.74829102 357.88232422 C-31.53878921 357.71760584 -25.06961017 357.11019777 -19 351 C-13.62792229 343.96749067 -12.15427263 337.81972831 -13 329 C-14.72686436 322.90396075 -18.61962472 318.28048061 -24 315 C-31.33285908 311.41963688 -38.44391178 311.45689276 -46.5 311.3125 C-50.955 311.209375 -55.41 311.10625 -60 311 C-60 298.46 -60 285.92 -60 273 C-46.625 272.75 -46.625 272.75 -42.47119141 272.70214844 C-34.40611021 272.48009867 -26.40248118 271.8801529 -20.09863281 266.32421875 C-15.26479988 261.17386656 -12.86467293 255.62944744 -12.5625 248.5625 C-12.76781771 242.31741964 -14.36508959 237.93509007 -18.54296875 233.28125 C-26.75111389 225.61781014 -35.76530435 225.50490261 -46.5 225.3125 C-53.1825 225.1578125 -53.1825 225.1578125 -60 225 C-60 212.46 -60 199.92 -60 187 C-46.625 186.75 -46.625 186.75 -42.47119141 186.70214844 C-34.40611021 186.48009867 -26.40248118 185.8801529 -20.09863281 180.32421875 C-14.50687235 174.36630996 -12.34102059 167.88577319 -12.5859375 159.78125 C-13.47906321 153.78214147 -16.52958931 149.01870449 -21.0625 145.0625 C-25.98504644 141.60624399 -29.38013913 140.68777342 -35.390625 140.5859375 C-36.68000977 140.55032715 -37.96939453 140.5147168 -39.29785156 140.47802734 C-40.93206055 140.44402832 -42.56626953 140.4100293 -44.25 140.375 C-49.4475 140.25125 -54.645 140.1275 -60 140 C-60 127.13 -60 114.26 -60 101 C-46.125 100.8125 -46.125 100.8125 -41.81298828 100.79223633 C-32.99189244 100.57704253 -25.74171073 99.35016583 -19.06933594 93.22875977 C-13.67857525 87.50506006 -12.4505439 81.53454052 -12.62890625 73.8125 C-13.50533848 67.17006627 -16.88192977 62.57667302 -22.0625 58.5 C-26.88378437 55.06304481 -31.09317704 54.85740577 -36.953125 54.68359375 C-37.61334656 54.66281265 -38.27356812 54.64203156 -38.95379639 54.62062073 C-41.05243015 54.55549853 -43.15118372 54.49641498 -45.25 54.4375 C-46.67709547 54.39427921 -48.10417905 54.3506638 -49.53125 54.30664062 C-53.02070722 54.19985589 -56.51029753 54.09848434 -60 54 C-60.14892693 48.5740954 -60.25748635 43.14939404 -60.32958984 37.72192383 C-60.35966233 35.87796288 -60.4005326 34.03414379 -60.45263672 32.19067383 C-60.52587858 29.53170709 -60.55955005 26.87463925 -60.5859375 24.21484375 C-60.61690521 23.39789536 -60.64787292 22.58094696 -60.67977905 21.73924255 C-60.68302278 16.15429654 -59.33732337 13.34852762 -55.48721313 9.3049469 C-52.8304282 6.97376572 -50.96252769 6.86959148 -47.52197266 6.84228516 C-46.13010239 6.82689194 -46.13010239 6.82689194 -44.71011353 6.81118774 C-43.20231827 6.80023575 -43.20231827 6.80023575 -41.6640625 6.7890625 C-39.54686724 6.76099593 -37.42967984 6.73233148 -35.3125 6.703125 C-31.96582236 6.66183227 -28.61929173 6.62495511 -25.27246094 6.59863281 C-22.04851786 6.57106149 -18.82524745 6.52519046 -15.6015625 6.4765625 C-14.60041412 6.47330963 -13.59926575 6.47005676 -12.56777954 6.46670532 C-11.63356171 6.45013885 -10.69934387 6.43357239 -9.73681641 6.41650391 C-8.91678131 6.40841705 -8.09674622 6.4003302 -7.25186157 6.39199829 C-4.44040672 5.90258744 -3.06689538 4.94405931 -1 3 C-0.67 2.01 -0.34 1.02 0 0 Z " fill="#00C654" transform="translate(131,7)"/>
<path d="M0 0 C9.9 0 19.8 0 30 0 C32.68335198 2.68335198 32.25015366 3.99512503 32.25053978 7.74785423 C32.25553848 8.97900817 32.26053717 10.21016211 32.26568735 11.47862375 C32.26114615 12.85736228 32.25642947 14.23610025 32.2515564 15.61483765 C32.25369312 17.06976904 32.25671718 18.52469936 32.26055682 19.97962725 C32.26862954 23.99217262 32.26427461 28.0046253 32.25803804 32.01717043 C32.25351924 36.33900449 32.26053658 40.66082043 32.26634216 44.98265076 C32.27498969 52.47622693 32.27677982 59.96977948 32.27439499 67.46335983 C32.2713036 78.3022846 32.28291412 89.14115693 32.29894479 99.98006852 C32.32492942 117.56971547 32.34493665 135.15936247 32.35839844 152.74902344 C32.35920881 153.80253021 32.36001918 154.85603698 32.3608541 155.94146819 C32.37207701 170.89418787 32.37735678 185.84690382 32.38024123 200.79962714 C32.38044522 201.85252753 32.38064921 202.90542792 32.38085938 203.99023438 C32.38105931 205.04185675 32.38125925 206.09347913 32.38146524 207.17696886 C32.38519476 224.69679214 32.40425709 242.21655865 32.43595374 259.73635352 C32.45489963 270.55085735 32.46081063 281.36521585 32.45013656 292.17973174 C32.44383024 299.587516 32.45182175 306.99519584 32.47119068 314.40295719 C32.4819022 318.68091446 32.48597461 322.95861838 32.47271919 327.23657417 C32.46071497 331.14990395 32.46694403 335.06275748 32.48791118 338.97604556 C32.49223251 340.39461687 32.48973382 341.81322804 32.47987001 343.23177163 C32.46746609 345.15463818 32.4818925 347.07762255 32.49777794 349.00046349 C32.49821267 350.07019067 32.49864741 351.13991786 32.49909532 352.24206102 C33.12738945 355.70139556 34.26321912 356.85799676 37 359 C37.99 359.33 38.98 359.66 40 360 C40.16216064 362.91889148 40.28091202 365.82879225 40.375 368.75 C40.42527344 369.575 40.47554688 370.4 40.52734375 371.25 C40.58516902 373.64011128 40.56713162 375.67509861 40 378 C37.0390625 380.515625 37.0390625 380.515625 34 382 C32.41750658 383.58249342 32.85953536 385.20082405 32.84228516 387.39624023 C32.82689194 388.79790688 32.82689194 388.79790688 32.81118774 390.22789001 C32.80388641 391.24452225 32.79658508 392.26115448 32.7890625 393.30859375 C32.76099959 395.4381588 32.73233517 397.567716 32.703125 399.69726562 C32.66178447 403.0726708 32.62491879 406.44792839 32.59863281 409.82348633 C32.57113589 413.06883455 32.52526805 416.31350407 32.4765625 419.55859375 C32.47330963 420.57320175 32.47005676 421.58780975 32.46670532 422.63316345 C32.45013885 423.57076004 32.43357239 424.50835663 32.41650391 425.47436523 C32.40841705 426.30185776 32.4003302 427.12935028 32.39199829 427.98191833 C32.26263885 428.64788528 32.13327942 429.31385223 32 430 C23.10747937 435.92834708 10.68747969 432 0 432 C0 289.44 0 146.88 0 0 Z " fill="#FEF9E5" transform="translate(439,40)"/>
<path d="M0 0 C64.68 0 129.36 0 196 0 C196 14.52 196 29.04 196 44 C131.32 44 66.64 44 0 44 C0 29.48 0 14.96 0 0 Z " fill="#F9EF97" transform="translate(174,88)"/>
<path d="M0 0 C1.23352955 -0.00551503 1.23352955 -0.00551503 2.49197888 -0.01114148 C5.26331522 -0.02220481 8.0346141 -0.02602664 10.80596924 -0.02983093 C12.78665283 -0.03609358 14.76733524 -0.0427402 16.74801636 -0.04974365 C22.1406867 -0.06717181 27.53334816 -0.07771035 32.9260397 -0.08594918 C36.29337914 -0.09109547 39.6607158 -0.09717136 43.02805328 -0.10346031 C53.55834183 -0.12251741 64.08862333 -0.13674747 74.61892581 -0.14507228 C86.78423693 -0.15484775 98.94936625 -0.18117328 111.11461329 -0.22157317 C120.51084956 -0.25170914 129.90703364 -0.26653876 139.30331731 -0.26985329 C144.91840626 -0.27220665 150.5333011 -0.28120423 156.14833832 -0.30631447 C161.43099163 -0.32955607 166.7133225 -0.33384412 171.99601364 -0.32355309 C173.93502498 -0.32305666 175.87405198 -0.32940834 177.81301498 -0.34310913 C180.46052955 -0.36076988 183.10687964 -0.3537508 185.75439453 -0.34057617 C186.5215248 -0.35154542 187.28865507 -0.36251466 188.07903171 -0.37381631 C193.24632553 -0.31174667 196.14436541 0.9017674 200.13116455 4.14717102 C203.72490865 8.22655622 205.24523906 10.55017419 205.32403564 15.94477844 C205.34009857 16.94309189 205.3561615 17.94140533 205.37271118 18.9699707 C205.41718314 23.5476669 205.45824381 28.12521736 205.48126221 32.70307922 C205.49780306 35.11528687 205.52506799 37.52744588 205.56329346 39.93940735 C205.61815902 43.41907663 205.63995412 46.8975957 205.65460205 50.37763977 C205.67727142 51.45079941 205.6999408 52.52395905 205.72329712 53.62963867 C205.70751018 59.24680371 205.28306377 63.1723127 201.8901062 67.73672485 C196.68178863 71.9131292 191.22540996 72.58572507 184.74371338 72.52812195 C183.92596089 72.53280192 183.10820841 72.53748189 182.26567554 72.54230368 C179.53968144 72.55422026 176.81419318 72.5448096 174.0881958 72.53535461 C172.12809965 72.5394218 170.16800579 72.5447645 168.20791626 72.55128479 C162.89392334 72.56494668 157.5801054 72.55966434 152.26610947 72.55014753 C146.70134769 72.54254514 141.13660075 72.54959816 135.57183838 72.55430603 C126.22732863 72.55976188 116.88289005 72.55257641 107.53839111 72.5382843 C96.73937051 72.52195815 85.94051983 72.52724678 75.14150333 72.54376352 C65.86488167 72.5573832 56.58831113 72.55929567 47.3116827 72.55144751 C41.77326103 72.54677367 36.2349192 72.54613826 30.69650269 72.55605698 C25.48930544 72.56473133 20.282327 72.558696 15.07515335 72.54137421 C13.16559843 72.5374119 11.25602505 72.53853903 9.34647751 72.5451622 C6.73694275 72.55337786 4.12810618 72.54305598 1.51861572 72.52812195 C0.76559079 72.53481411 0.01256586 72.54150628 -0.76327801 72.54840124 C-5.92827297 72.49119179 -9.38002937 71.53752126 -13.86883545 69.14717102 C-17.42971836 64.64921366 -18.97964675 61.09023394 -19.0458374 55.40376282 C-19.05867264 54.44233871 -19.07150787 53.48091461 -19.08473206 52.49035645 C-19.09211899 51.45284744 -19.09950592 50.41533844 -19.1071167 49.34638977 C-19.11518845 48.27725845 -19.12326019 47.20812714 -19.13157654 46.1065979 C-19.14541136 43.84287638 -19.15613621 41.57913405 -19.16400146 39.31538391 C-19.18121668 35.85851928 -19.22510961 32.40261041 -19.26922607 28.94599915 C-19.27935298 26.74613638 -19.28786909 24.54626549 -19.2946167 22.34638977 C-19.31212479 21.31495346 -19.32963287 20.28351715 -19.34767151 19.2208252 C-19.32948534 13.1855541 -18.88715636 9.74288174 -14.86883545 5.14717102 C-9.73982242 0.62875478 -6.68487583 -0.00158809 0 0 Z M-4.86883545 14.14717102 C-4.86883545 28.66717102 -4.86883545 43.18717102 -4.86883545 58.14717102 C59.81116455 58.14717102 124.49116455 58.14717102 191.13116455 58.14717102 C191.13116455 43.62717102 191.13116455 29.10717102 191.13116455 14.14717102 C126.45116455 14.14717102 61.77116455 14.14717102 -4.86883545 14.14717102 Z " fill="#010201" transform="translate(178.86883544921875,73.85282897949219)"/>
<path d="M0 0 C0.8746245 -0.00623996 1.749249 -0.01247993 2.65037727 -0.01890898 C5.5808318 -0.03486264 8.51045728 -0.0222254 11.44091797 -0.00964355 C13.5418954 -0.01506361 15.64286903 -0.02218561 17.74383545 -0.03088379 C23.45039928 -0.04913379 29.15667416 -0.04204256 34.8632431 -0.02936745 C40.83201381 -0.01924854 46.80075958 -0.02863004 52.76953125 -0.03491211 C62.79350227 -0.04219173 72.81735546 -0.03259248 82.84130859 -0.0135498 C94.43448136 0.00821945 106.02737276 0.00116831 117.62053871 -0.02085543 C127.56970442 -0.03900039 137.51878536 -0.04157215 147.46796227 -0.03110075 C153.41213977 -0.02486088 159.35618497 -0.02404385 165.300354 -0.0372467 C170.88841185 -0.04879133 176.4761065 -0.04080454 182.06412506 -0.01766968 C184.11642096 -0.01237521 186.16874737 -0.01390892 188.22103119 -0.02272034 C191.01983873 -0.03363011 193.81747809 -0.01996741 196.61621094 0 C197.43089907 -0.00892289 198.2455872 -0.01784577 199.08496284 -0.02703905 C202.83552708 0.02496299 205.09282213 0.37611642 208.32009888 2.35218048 C210.30810547 4.50793457 210.30810547 4.50793457 210.80810547 7.50793457 C210.23480453 10.94774018 209.87127109 12.15296892 207.30810547 14.50793457 C204.31519765 14.90803645 201.68720889 15.04778922 198.69140625 15.01586914 C197.80074526 15.0221091 196.91008427 15.02834907 195.99243355 15.03477812 C192.99582896 15.05078478 190.00002917 15.03807391 187.00341797 15.0255127 C184.86008223 15.0309304 182.71675021 15.03805107 180.57342529 15.04675293 C174.74291655 15.06503093 168.91269006 15.05790021 163.08217621 15.04523659 C156.98967205 15.03513211 150.89719258 15.04449515 144.8046875 15.05078125 C134.57205858 15.0580651 124.33954501 15.04845056 114.10693359 15.02941895 C102.26496448 15.00764888 90.4232708 15.01469972 78.58130836 15.03672457 C68.42669626 15.05485751 58.27216723 15.05744719 48.11754417 15.04696989 C42.04708718 15.04072339 35.97675978 15.0399311 29.90631104 15.05311584 C24.20009676 15.06464306 18.49423871 15.05670578 12.78806305 15.03353882 C10.68977704 15.02823499 8.59146122 15.02979392 6.49318695 15.03858948 C3.63665031 15.04946248 0.78126711 15.03588149 -2.07519531 15.01586914 C-2.91263716 15.02479203 -3.750079 15.03371491 -4.61289787 15.04290819 C-10.19259373 14.96667833 -10.19259373 14.96667833 -12.69918823 12.66368866 C-14.08150227 9.66186511 -14.2360172 7.7726706 -13.69189453 4.50793457 C-9.61668027 0.08885475 -5.69566109 -0.06238183 0 0 Z " fill="#020603" transform="translate(173.69189453125,267.4920654296875)"/>
<path d="M0 0 C0.8746245 -0.00623996 1.749249 -0.01247993 2.65037727 -0.01890898 C5.5808318 -0.03486264 8.51045728 -0.0222254 11.44091797 -0.00964355 C13.5418954 -0.01506361 15.64286903 -0.02218561 17.74383545 -0.03088379 C23.45039928 -0.04913379 29.15667416 -0.04204256 34.8632431 -0.02936745 C40.83201381 -0.01924854 46.80075958 -0.02863004 52.76953125 -0.03491211 C62.79350227 -0.04219173 72.81735546 -0.03259248 82.84130859 -0.0135498 C94.43448136 0.00821945 106.02737276 0.00116831 117.62053871 -0.02085543 C127.56970442 -0.03900039 137.51878536 -0.04157215 147.46796227 -0.03110075 C153.41213977 -0.02486088 159.35618497 -0.02404385 165.300354 -0.0372467 C170.88841185 -0.04879133 176.4761065 -0.04080454 182.06412506 -0.01766968 C184.11642096 -0.01237521 186.16874737 -0.01390892 188.22103119 -0.02272034 C191.01983873 -0.03363011 193.81747809 -0.01996741 196.61621094 0 C197.43089907 -0.00892289 198.2455872 -0.01784577 199.08496284 -0.02703905 C202.83552708 0.02496299 205.09282213 0.37611642 208.32009888 2.35218048 C210.30810547 4.50793457 210.30810547 4.50793457 210.80810547 7.50793457 C210.23480453 10.94774018 209.87127109 12.15296892 207.30810547 14.50793457 C204.31519765 14.90803645 201.68720889 15.04778922 198.69140625 15.01586914 C197.80074526 15.0221091 196.91008427 15.02834907 195.99243355 15.03477812 C192.99582896 15.05078478 190.00002917 15.03807391 187.00341797 15.0255127 C184.86008223 15.0309304 182.71675021 15.03805107 180.57342529 15.04675293 C174.74291655 15.06503093 168.91269006 15.05790021 163.08217621 15.04523659 C156.98967205 15.03513211 150.89719258 15.04449515 144.8046875 15.05078125 C134.57205858 15.0580651 124.33954501 15.04845056 114.10693359 15.02941895 C102.26496448 15.00764888 90.4232708 15.01469972 78.58130836 15.03672457 C68.42669626 15.05485751 58.27216723 15.05744719 48.11754417 15.04696989 C42.04708718 15.04072339 35.97675978 15.0399311 29.90631104 15.05311584 C24.20009676 15.06464306 18.49423871 15.05670578 12.78806305 15.03353882 C10.68977704 15.02823499 8.59146122 15.02979392 6.49318695 15.03858948 C3.63665031 15.04946248 0.78126711 15.03588149 -2.07519531 15.01586914 C-2.91263716 15.02479203 -3.750079 15.03371491 -4.61289787 15.04290819 C-10.19259373 14.96667833 -10.19259373 14.96667833 -12.69918823 12.66368866 C-14.08150227 9.66186511 -14.2360172 7.7726706 -13.69189453 4.50793457 C-9.61668027 0.08885475 -5.69566109 -0.06238183 0 0 Z " fill="#020603" transform="translate(173.69189453125,226.4920654296875)"/>
<path d="M0 0 C0.8746245 -0.00623996 1.749249 -0.01247993 2.65037727 -0.01890898 C5.5808318 -0.03486264 8.51045728 -0.0222254 11.44091797 -0.00964355 C13.5418954 -0.01506361 15.64286903 -0.02218561 17.74383545 -0.03088379 C23.45039928 -0.04913379 29.15667416 -0.04204256 34.8632431 -0.02936745 C40.83201381 -0.01924854 46.80075958 -0.02863004 52.76953125 -0.03491211 C62.79350227 -0.04219173 72.81735546 -0.03259248 82.84130859 -0.0135498 C94.43448136 0.00821945 106.02737276 0.00116831 117.62053871 -0.02085543 C127.56970442 -0.03900039 137.51878536 -0.04157215 147.46796227 -0.03110075 C153.41213977 -0.02486088 159.35618497 -0.02404385 165.300354 -0.0372467 C170.88841185 -0.04879133 176.4761065 -0.04080454 182.06412506 -0.01766968 C184.11642096 -0.01237521 186.16874737 -0.01390892 188.22103119 -0.02272034 C191.01983873 -0.03363011 193.81747809 -0.01996741 196.61621094 0 C197.43089907 -0.00892289 198.2455872 -0.01784577 199.08496284 -0.02703905 C202.83552708 0.02496299 205.09282213 0.37611642 208.32009888 2.35218048 C210.30810547 4.50793457 210.30810547 4.50793457 210.80810547 7.50793457 C210.23480453 10.94774018 209.87127109 12.15296892 207.30810547 14.50793457 C204.31519765 14.90803645 201.68720889 15.04778922 198.69140625 15.01586914 C197.80074526 15.0221091 196.91008427 15.02834907 195.99243355 15.03477812 C192.99582896 15.05078478 190.00002917 15.03807391 187.00341797 15.0255127 C184.86008223 15.0309304 182.71675021 15.03805107 180.57342529 15.04675293 C174.74291655 15.06503093 168.91269006 15.05790021 163.08217621 15.04523659 C156.98967205 15.03513211 150.89719258 15.04449515 144.8046875 15.05078125 C134.57205858 15.0580651 124.33954501 15.04845056 114.10693359 15.02941895 C102.26496448 15.00764888 90.4232708 15.01469972 78.58130836 15.03672457 C68.42669626 15.05485751 58.27216723 15.05744719 48.11754417 15.04696989 C42.04708718 15.04072339 35.97675978 15.0399311 29.90631104 15.05311584 C24.20009676 15.06464306 18.49423871 15.05670578 12.78806305 15.03353882 C10.68977704 15.02823499 8.59146122 15.02979392 6.49318695 15.03858948 C3.63665031 15.04946248 0.78126711 15.03588149 -2.07519531 15.01586914 C-2.91263716 15.02479203 -3.750079 15.03371491 -4.61289787 15.04290819 C-10.19259373 14.96667833 -10.19259373 14.96667833 -12.69918823 12.66368866 C-14.08150227 9.66186511 -14.2360172 7.7726706 -13.69189453 4.50793457 C-9.61668027 0.08885475 -5.69566109 -0.06238183 0 0 Z " fill="#020603" transform="translate(173.69189453125,185.4920654296875)"/>
<path d="M0 0 C5.23038438 4.50162255 9.35552906 8.56115057 10.6953125 15.58203125 C10.86422961 23.10447301 8.98543525 28.12737108 4.19140625 33.94140625 C-2.16111197 40.13707216 -9.60414085 43.27295898 -18.45556641 43.40966797 C-19.21144043 43.3995166 -19.96731445 43.38936523 -20.74609375 43.37890625 C-21.53806152 43.37133301 -22.3300293 43.36375977 -23.14599609 43.35595703 C-29.11888346 43.18734265 -33.77041407 42.31062372 -38.80859375 38.94140625 C-39.88173828 38.27044922 -39.88173828 38.27044922 -40.9765625 37.5859375 C-46.8704977 33.58149701 -50.33735934 29.0411246 -51.80859375 21.94140625 C-52.5913934 15.99212893 -51.90537585 11.80327535 -48.4375 6.86328125 C-36.47571971 -7.24989838 -15.49281268 -11.3556499 0 0 Z " fill="#FDFEFD" transform="translate(376.80859375,366.05859375)"/>
<path d="M0 0 C4.70117966 3.99699452 9.88020873 8.9053058 10.80078125 15.265625 C10.84734001 23.89451609 8.61941717 29.9257708 2.5 36.1875 C-4.59269505 41.70404059 -11.63249364 43.74325099 -20.4375 43.625 C-21.22946777 43.61742676 -22.02143555 43.60985352 -22.83740234 43.60205078 C-28.81597721 43.43327585 -33.45277246 42.54882788 -38.5 39.1875 C-39.55574219 38.55134766 -39.55574219 38.55134766 -40.6328125 37.90234375 C-45.94883687 34.38121322 -49.42556451 30.25855432 -51.5 24.1875 C-52.45804829 18.67479593 -52.30265704 13.86598194 -49.5 8.9375 C-43.961161 1.31768476 -37.27624118 -3.6778812 -28 -5.5 C-18.43292638 -6.354203 -8.05517741 -5.82357229 0 0 Z " fill="#FDFEFD" transform="translate(208.5,365.8125)"/>
<path d="M0 0 C6.55247468 3.86322986 11.62281188 10.21286547 13.6875 17.5 C14.6993993 26.4173626 13.54136679 34.1740992 8.21484375 41.53515625 C3.40699829 46.88857283 -2.68339678 50.22363563 -9.9296875 50.65625 C-17.78761985 50.17856414 -22.73406747 47.41215482 -28.0625 41.75 C-33.47182273 35.1372549 -34.97703603 29.06154461 -34.71875 20.52734375 C-33.63759971 12.47069492 -29.47260686 6.98912188 -23.375 1.875 C-16.59781329 -2.64312447 -7.49043638 -3.30632543 0 0 Z " fill="#010302" transform="translate(282.3125,341.5)"/>
<path d="M0 0 C0.98152039 -0.01606293 1.96304077 -0.03212585 2.9743042 -0.04867554 C7.47016744 -0.09312124 11.96588245 -0.13419872 16.46191406 -0.15722656 C18.83245669 -0.17377882 21.20294956 -0.20105888 23.57324219 -0.23925781 C26.99082336 -0.29405729 30.40723378 -0.31590715 33.82519531 -0.33056641 C34.88164246 -0.35323578 35.9380896 -0.37590515 37.02655029 -0.39926147 C45.24685156 -0.37569496 45.24685156 -0.37569496 48.93164062 2.60058594 C51.43576758 5.36679692 52.15809823 6.3112425 52.65332031 9.94287109 C52.13116041 14.4682569 50.43602653 15.9599814 47.27832031 19.19287109 C44.84598846 20.40903702 43.25928331 20.33263689 40.54077148 20.35400391 C39.55602341 20.36361145 38.57127533 20.37321899 37.5566864 20.38311768 C36.48900528 20.38736755 35.42132416 20.39161743 34.32128906 20.39599609 C33.22617508 20.40169617 32.1310611 20.40739624 31.00276184 20.41326904 C28.68178272 20.42272822 26.36079012 20.42925665 24.03979492 20.43310547 C20.49080911 20.44280281 16.94240428 20.47381481 13.39355469 20.50537109 C11.14030292 20.51190182 8.88704701 20.51715202 6.63378906 20.52099609 C5.57218063 20.5333429 4.5105722 20.5456897 3.41679382 20.55841064 C-5.78848602 20.53062365 -5.78848602 20.53062365 -9.72167969 17.19287109 C-12.28787665 13.77127514 -12.23152023 10.34442976 -11.72167969 6.19287109 C-8.01668426 1.70787663 -5.69691231 0.08462992 0 0 Z " fill="#A0D6EA" transform="translate(52.7216796875,245.80712890625)"/>
<path d="M0 0 C1.47712212 -0.01441132 1.47712212 -0.01441132 2.98408508 -0.02911377 C4.0517662 -0.03336365 5.11944733 -0.03761353 6.21948242 -0.04199219 C7.31459641 -0.04769226 8.40971039 -0.05339233 9.53800964 -0.05926514 C11.85898876 -0.06872432 14.17998136 -0.07525275 16.50097656 -0.07910156 C20.04996238 -0.08879891 23.5983672 -0.1198109 27.1472168 -0.15136719 C29.40046856 -0.15789792 31.65372447 -0.16314811 33.90698242 -0.16699219 C35.49939507 -0.18551239 35.49939507 -0.18551239 37.12397766 -0.20440674 C46.42789743 -0.17632199 46.42789743 -0.17632199 50.26245117 3.16113281 C52.75404157 6.89851841 52.72038402 8.73444864 52.26245117 13.16113281 C50.46682712 15.91442302 49.20990195 17.68740742 46.26245117 19.16113281 C44.59438817 19.28188359 42.92169169 19.34107904 41.24951172 19.36987305 C39.68229622 19.39880898 39.68229622 19.39880898 38.0834198 19.42832947 C33.30304308 19.48595303 28.52281858 19.53533941 23.7421875 19.56616211 C21.21926199 19.58776445 18.69641187 19.62189303 16.17382812 19.66870117 C12.54026752 19.73553566 8.90825762 19.7631351 5.27416992 19.78222656 C4.14694016 19.81005722 3.01971039 19.83788788 1.85832214 19.86656189 C-5.73528983 19.84657784 -5.73528983 19.84657784 -8.56918335 17.90847778 C-10.93309398 15.23029213 -11.74687735 13.10796025 -12.36254883 9.59863281 C-11.58135391 5.30206074 -10.08517015 3.87111198 -6.73754883 1.16113281 C-4.30521697 -0.05503311 -2.71851182 0.02136702 0 0 Z " fill="#A4DCF1" transform="translate(52.737548828125,417.8388671875)"/>
<path d="M0 0 C1.73618591 -0.00361794 1.73618591 -0.00361794 3.50744629 -0.00730896 C5.95177643 -0.00633055 8.39612874 0.00706126 10.84033203 0.03198242 C14.58051881 0.0662849 18.31834238 0.05264003 22.05859375 0.03320312 C24.43490589 0.0401017 26.81121193 0.04977417 29.1875 0.0625 C30.3053186 0.05754013 31.42313721 0.05258026 32.5748291 0.04747009 C40.32098806 0.16490516 40.32098806 0.16490516 44.27539062 2.53930664 C47.2611533 5.97044826 47.36406629 8.1236348 47.09375 12.62890625 C46.25222323 15.30649142 45.35705357 16.40688376 43.21264648 18.21508789 C38.50168554 20.3506006 33.99447507 20.07681516 28.87890625 20.0625 C27.79040878 20.06774185 26.70191132 20.0729837 25.58042908 20.0783844 C23.28157401 20.08479943 20.9826861 20.08347436 18.68383789 20.07495117 C15.17209235 20.06644463 11.66197542 20.09520637 8.15039062 20.12695312 C5.91406299 20.12856537 3.67773247 20.12798716 1.44140625 20.125 C-0.12914772 20.14185097 -0.12914772 20.14185097 -1.73143005 20.15904236 C-7.72317112 20.10194605 -11.40919384 19.74992472 -15.90625 15.62890625 C-17.11885877 11.99107993 -17.30169552 9.45154626 -16.90625 5.62890625 C-12.61070168 -0.85862124 -7.06553645 -0.08380283 0 0 Z " fill="#A5DDF1" transform="translate(57.90625,74.37109375)"/>
<path d="M0 0 C0.98152039 -0.01606293 1.96304077 -0.03212585 2.9743042 -0.04867554 C7.47016744 -0.09312124 11.96588245 -0.13419872 16.46191406 -0.15722656 C18.83245669 -0.17377882 21.20294956 -0.20105888 23.57324219 -0.23925781 C26.99082336 -0.29405729 30.40723378 -0.31590715 33.82519531 -0.33056641 C34.88164246 -0.35323578 35.9380896 -0.37590515 37.02655029 -0.39926147 C45.24685156 -0.37569496 45.24685156 -0.37569496 48.93164062 2.60058594 C51.47619374 5.41145412 52.1788863 6.297965 52.59082031 10.00537109 C52.20667673 13.92363559 50.98575715 15.40580376 48.27832031 18.19287109 C45.7886211 19.4377207 44.0513714 19.35363813 41.26538086 19.40161133 C39.69816536 19.43054726 39.69816536 19.43054726 38.09928894 19.46006775 C33.31891222 19.51769131 28.53868772 19.5670777 23.75805664 19.59790039 C21.23513114 19.61950273 18.71228101 19.65363131 16.18969727 19.70043945 C12.55613666 19.76727394 8.92412676 19.79487338 5.29003906 19.81396484 C4.1628093 19.8417955 3.03557953 19.86962616 1.87419128 19.89830017 C-5.71942069 19.87831612 -5.71942069 19.87831612 -8.55331421 17.94021606 C-10.91722484 15.26203041 -11.73100821 13.13969853 -12.34667969 9.63037109 C-11.56548477 5.33379903 -10.06930101 3.90285026 -6.72167969 1.19287109 C-4.30017352 -0.01788199 -2.70626548 0.04020266 0 0 Z " fill="#A4DCF1" transform="translate(52.7216796875,331.80712890625)"/>
<path d="M0 0 C1.73618591 -0.00361794 1.73618591 -0.00361794 3.50744629 -0.00730896 C5.95177643 -0.00633055 8.39612874 0.00706126 10.84033203 0.03198242 C14.58051881 0.0662849 18.31834238 0.05264003 22.05859375 0.03320312 C24.43490589 0.0401017 26.81121193 0.04977417 29.1875 0.0625 C30.3053186 0.05754013 31.42313721 0.05258026 32.5748291 0.04747009 C40.32098806 0.16490516 40.32098806 0.16490516 44.27539062 2.53930664 C46.42109713 5.00508295 47.02620364 6.13356631 47.46875 9.37890625 C46.9465901 13.90429205 45.25145622 15.39601655 42.09375 18.62890625 C39.66141815 19.84507218 38.074713 19.76867204 35.35620117 19.79003906 C34.37145309 19.79964661 33.38670502 19.80925415 32.37211609 19.81915283 C31.30443497 19.82340271 30.23675385 19.82765259 29.13671875 19.83203125 C28.04160477 19.83773132 26.94649078 19.8434314 25.81819153 19.8493042 C23.49721241 19.85876338 21.17621981 19.86529181 18.85522461 19.86914062 C15.3062388 19.87883797 11.75783397 19.90984996 8.20898438 19.94140625 C5.95573261 19.94793698 3.7024767 19.95318718 1.44921875 19.95703125 C0.38761032 19.96937805 -0.67399811 19.98172485 -1.76777649 19.9944458 C-10.97305633 19.96665881 -10.97305633 19.96665881 -14.90625 16.62890625 C-17.47244697 13.2073103 -17.41609054 9.78046492 -16.90625 5.62890625 C-12.59795765 -0.85417716 -7.072714 -0.08388796 0 0 Z " fill="#A4DCF1" transform="translate(57.90625,160.37109375)"/>
<path d="M0 0 C4.83415824 2.84723727 8.0861835 7.547367 10.5625 12.5 C11.04797716 17.06826052 11.39079866 21.10845824 9 25.125 C5.5721437 27.05866253 3.43266423 27.12199068 -0.4375 26.5 C-4.44762125 23.01752628 -5.0318871 19.67156444 -5.4375 14.5 C-8.7375 14.5 -12.0375 14.5 -15.4375 14.5 C-15.685 15.923125 -15.9325 17.34625 -16.1875 18.8125 C-16.8534997 21.75399869 -17.21537376 23.23820837 -19.1875 25.5625 C-22.20335338 26.81910557 -24.19984195 26.97215847 -27.4375 26.5 C-29.8125 25 -29.8125 25 -31.4375 22.5 C-32.23887195 15.5166159 -30.54508846 10.73665371 -26.6875 4.8125 C-19.54040261 -2.53312787 -9.54768178 -4.11284754 0 0 Z " fill="#010402" transform="translate(343.4375,335.5)"/>
<path d="M0 0 C5.37203167 2.34831559 8.63163727 6.41104133 11.58203125 11.3828125 C12.82330686 15.10663933 13.10883514 18.51456682 12.58203125 22.3828125 C11.01953125 25.3828125 11.01953125 25.3828125 8.58203125 27.3828125 C5.08203125 28.0078125 5.08203125 28.0078125 1.58203125 27.3828125 C-1.89388283 24.18872929 -3.10032011 20.84254635 -4.41796875 16.3828125 C-5.58907059 14.99372611 -5.58907059 14.99372611 -8.85546875 15.1328125 C-10.03109375 15.2153125 -11.20671875 15.2978125 -12.41796875 15.3828125 C-14.60560386 18.31252286 -14.60560386 18.31252286 -15.35546875 21.9453125 C-16.41796875 25.3828125 -16.41796875 25.3828125 -19.41796875 27.3828125 C-22.88364282 27.82523898 -24.75011412 27.76946518 -27.79296875 26.0078125 C-30.34256755 21.88922983 -30.23765886 18.08896433 -29.41796875 13.3828125 C-26.9593256 7.47803837 -23.07780997 3.62253795 -17.65625 0.3046875 C-12.33452765 -1.88715626 -5.50110552 -1.40415941 0 0 Z " fill="#010302" transform="translate(218.41796875,334.6171875)"/>
<path d="M0 0 C2.57285724 2.172635 4.48996919 3.97993838 6 7 C6.37766377 12.00404498 6.11200434 14.99885156 3 19 C1.1875 20.875 1.1875 20.875 -1 22 C-4.67103038 21.9235202 -6.44941934 21.44641675 -9.3125 19.125 C-12.36547605 15.28051164 -12.40416122 11.76910244 -12 7 C-8.77369395 1.19264911 -6.74367606 -0.79337365 0 0 Z " fill="#484E61" transform="translate(275,355)"/>
</svg>
